<?xml version="1.0" encoding="utf-8"?>
<!-- Generator: Adobe Illustrator 25.3.1, SVG Export Plug-In . SVG Version: 6.00 Build 0)  -->
<svg version="1.1" id="Camada_1" xmlns="http://www.w3.org/2000/svg" xmlns:xlink="http://www.w3.org/1999/xlink" x="0px" y="0px"
	 viewBox="0 0 940 755" style="enable-background:new 0 0 940 755;" xml:space="preserve">
<style type="text/css">
	.st0{display:none;}
	.st1{fill:#FCD95E;}
</style>
<g>
	<path d="M186.39,719.69h-33.99l-14.09-42.01H70.45l-13.83,42.01H29.48l58.55-176.42h39.16L186.39,719.69z M129.78,652.22
		l-25.72-78.71l-25.72,78.71H129.78z"/>
	<path d="M207.58,719.69V543.27h68.76c11.63,0,21.28,1.21,28.95,3.62c7.67,2.41,14.3,7.45,19.9,15.12c5.6,7.67,8.4,16.67,8.4,27.01
		c0,9.74-2.84,18.2-8.53,25.4c-5.69,7.2-13.53,11.78-23.52,13.76c12.41,2.16,21.8,7.2,28.18,15.12c6.38,7.93,9.56,17.32,9.56,28.18
		c0,13.62-4.46,25.05-13.38,34.31c-8.92,9.26-22.64,13.89-41.17,13.89H207.58z M237.7,617.33h38.77c7.93,0,14.2-2.37,18.81-7.11
		c4.61-4.74,6.91-10.77,6.91-18.09c0-8.1-2.63-14.07-7.88-17.9c-5.26-3.83-11.42-5.75-18.48-5.75H237.7V617.33z M237.7,693.19h41.1
		c8.7,0,15.57-2.28,20.62-6.85c5.04-4.57,7.56-10.73,7.56-18.48c0-7.41-2.56-13.48-7.69-18.22c-5.13-4.74-11.91-7.11-20.36-7.11
		H237.7V693.19z"/>
	<path d="M400.16,719.69h-31.79V543.27h31.79V719.69z"/>
	<path d="M547.5,719.69H438.93V543.27h33.48v147.6h75.09V719.69z"/>
	<path d="M602.69,719.69h-31.79V543.27h31.79V719.69z"/>
	<path d="M703.11,719.69h-34.12V570.54h-46.92v-27.27h127.95v27.27h-46.92V719.69z"/>
	<path d="M851.49,719.69h-33.73v-74.45l-60.1-101.98h38.51l41.88,72.77l40.07-72.77h30.5l-57.13,101.98V719.69z"/>
</g>
<g id="My">
	<g id="creativity">
		<g id="y">
			<path class="st0" d="M604.18,463.21c0,16.09,13.04,29.13,29.13,29.13h87.38c16.09,0,29.13-13.04,29.13-29.13v-14.56H604.18
				V463.21z"/>
			<path d="M614.18,488.96h145.63v29.13H614.18V488.96z"/>
			<path class="st0" d="M840.38,40.2l35.46-26.06L901.9,49.6l-35.46,26.06L840.38,40.2z"/>
			<path class="st0" d="M774.79,14.51L784.19-47l43.5,6.64l-9.39,61.51L774.79,14.51z"/>
			<path class="st0" d="M871.41,145.97l6.64-43.5l61.51,9.39l-6.64,43.5L871.41,145.97z"/>
			<path class="st0" d="M352.93,170.93h44.01v44.01h-44.01V170.93z"/>
			<path class="st0" d="M359.37,98.47l31.11-31.11l44,44l-31.11,31.11L359.37,98.47z"/>
			<path class="st0" d="M359.35,287.36l44-44l31.11,31.11l-44,44L359.35,287.36z"/>
			<path class="st1" d="M682.65,100.9c-97.22,0-176.03,78.8-176.04,176.02c0,62.89,33.55,121.01,88.02,152.46v45.58h66.01V354.72
				l-56.21-37.47c-6.12-4.08-9.8-10.95-9.8-18.31v-44.01h44.01v32.23l44.01,29.34l44.01-29.34v-32.23h44.01v44.01
				c0,7.36-3.68,14.23-9.8,18.31l-56.21,37.47v120.25h66.01v-45.58c84.2-48.61,113.05-156.26,64.44-240.46
				C803.66,134.46,745.54,100.9,682.65,100.9z M748.66,210.92c-12.15,0-22-9.85-22-22s9.85-22,22-22c12.15,0,22,9.85,22,22
				S760.81,210.92,748.66,210.92z"/>
		</g>
	</g>
	<g>
		<path d="M460.44,518.59h-59.71V234.28L310.8,518.59h-30.69L189.7,234.28v284.31h-47.82V193.84h91.6l68.04,209.13l66.85-209.13
			h92.07V518.59z"/>
	</g>
</g>
<g>
</g>
<g>
</g>
<g>
</g>
<g>
</g>
<g>
</g>
<g>
</g>
<g>
</g>
<g>
</g>
<g>
</g>
<g>
</g>
<g>
</g>
<g>
</g>
<g>
</g>
<g>
</g>
<g>
</g>
</svg>
