<svg id="Camada_1" data-name="Camada 1" xmlns="http://www.w3.org/2000/svg" viewBox="0 0 879.14 687.79"><defs><style>.cls-1{fill:#fcd95e;}</style></defs><path d="M186.39,719.69h-34l-14.08-42H70.45l-13.83,42H29.48L88,543.27h39.16Zm-56.61-67.47-25.72-78.71L78.34,652.22Z" transform="translate(-29.48 -31.9)"/><path d="M207.58,719.69V543.27h68.76q17.45,0,29,3.62T325.2,562q8.4,11.5,8.4,27a39.79,39.79,0,0,1-8.53,25.4q-8.54,10.79-23.53,13.76,18.61,3.24,28.18,15.12t9.56,28.18q0,20.43-13.37,34.31t-41.17,13.9ZM237.7,617.33h38.77q11.89,0,18.81-7.11t6.91-18.1q0-12.14-7.88-17.9a30.57,30.57,0,0,0-18.49-5.75H237.7Zm0,75.86h41.1q13.05,0,20.61-6.85T307,667.86q0-11.11-7.69-18.22t-20.35-7.11H237.7Z" transform="translate(-29.48 -31.9)"/><path d="M400.16,719.69H368.37V543.27h31.79Z" transform="translate(-29.48 -31.9)"/><path d="M547.5,719.69H438.93V543.27h33.48v147.6H547.5Z" transform="translate(-29.48 -31.9)"/><path d="M602.69,719.69h-31.8V543.27h31.8Z" transform="translate(-29.48 -31.9)"/><path d="M703.11,719.69H669V570.54H622.08V543.27H750v27.27H703.11Z" transform="translate(-29.48 -31.9)"/><path d="M851.49,719.69H817.76V645.24l-60.1-102h38.51L838.05,616l40.06-72.76h30.51l-57.13,102Z" transform="translate(-29.48 -31.9)"/><g id="My"><g id="creativity"><g id="y"><path d="M604.18,478.21a29.13,29.13,0,0,0,29.13,29.13h87.37a29.13,29.13,0,0,0,29.13-29.13V463.65H604.18Z" transform="translate(-29.48 -31.9)"/><path d="M604.18,420H749.81v29.13H604.18Z" transform="translate(-29.48 -31.9)"/><path class="cls-1" d="M672.65,31.9a176,176,0,0,0-88,328.48V406h66V285.72l-56.21-37.48a22,22,0,0,1-9.8-18.3v-44h44v32.23l44,29.34,44-29.34V185.93h44v44a22,22,0,0,1-9.8,18.3l-56.21,37.48V406h66V360.38a176,176,0,0,0-88-328.48Zm66,110a22,22,0,1,1,22-22A22,22,0,0,1,738.66,141.92Z" transform="translate(-29.48 -31.9)"/></g></g><path d="M456.44,506.59H396.73V222.28L306.8,506.59H276.11L185.7,222.28V506.59H137.88V181.84h91.59l68,209.12,66.85-209.12h92.07Z" transform="translate(-29.48 -31.9)"/></g></svg>